PathFileType	4	(X/Y/Z)	T1_P2_NoVision_NoMovement_2_0-733.trc
DataRate	CameraRate	NumFrames	NumMarkers	Units	OrigDataRate	OrigDataStartFrame	OrigNumFrames
60	60	4	27	m	60	458	733
Frame#	Time	RHip			RKnee			RAnkle			RBigToe			RSmallToe			RHeel			LHip			LKnee			LAnkle			LBigToe			LSmallToe			LHeel			Neck			Head			Nose			RShoulder			RElbow			RWrist			RThumb			RIndex			RPinky			LShoulder			LElbow			LWrist			LThumb			LIndex			LPinky		
		X1	Y1	Z1	X2	Y2	Z2	X3	Y3	Z3	X4	Y4	Z4	X5	Y5	Z5	X6	Y6	Z6	X7	Y7	Z7	X8	Y8	Z8	X9	Y9	Z9	X10	Y10	Z10	X11	Y11	Z11	X12	Y12	Z12	X13	Y13	Z13	X14	Y14	Z14	X15	Y15	Z15	X16	Y16	Z16	X17	Y17	Z17	X18	Y18	Z18	X19	Y19	Z19	X20	Y20	Z20	X21	Y21	Z21	X22	Y22	Z22	X23	Y23	Z23	X24	Y24	Z24	X25	Y25	Z25	X26	Y26	Z26	X27	Y27	Z27
459	7.65	467.46216583404544	3646.454165122665	540.789466574477	875.1644124514876	3703.756210498729	563.592869421812	1255.3594188778256	3780.3121010252376	628.4205033121552	1319.2124966658525	3610.579518352483	561.3730717508167	1316.7114773931814	3677.7237557862536	521.6036658682299	1276.1378464520656	3744.656731504297	628.8984515974242	471.118989117146	3528.831700327669	739.9437199599656	858.1834021059814	3541.7517992439693	736.9674643756412	1229.6866611846322	3601.798231742351	724.5386875771393	1311.7352402673628	3508.866771022756	674.3351139506213	1271.2484607060576	3452.279716860956	715.2355044254114	1271.6627452765679	3626.324440448666	717.3002376142872	-122.85728969433792	3558.5300251263175	642.1770129045613	-378.57473373155204	3510.1656857203293	626.9582095018966	-236.19480045394704	3484.671620293822	618.608150779528	-39.354928701227465	3723.9180383995226	544.8996598896797	200.00929761940634	3643.3349413358173	423.69406716155936	345.49174686353507	3467.2259372428457	493.95279758506405	435.5557195565874	3545.7316401094704	626.8491928627851	440.1548350436882	3495.83833969121	617.0743481689753	475.2040981062175	3472.948122345247	597.6772359065554	-22.771535552760923	3554.1490228215757	829.2869435914228	221.51763828157726	3419.230014990782	779.6444220246053	362.4426920811252	3412.581517223178	602.3849683015383	413.95054551320555	3452.1718064288953	501.6296680776703	435.560628824379	3446.265848951928	497.5884356483367	465.0937730743148	3433.8861870503606	576.6236066130161
460	7.666666666666667	461.80865066465014	3642.1865209500957	539.292879087546	874.9100391480285	3703.400658110809	563.3117853544343	1255.325252676903	3780.5418236731066	628.5274893222708	1315.955020282814	3615.135194713733	558.6001005975216	1310.2063059561422	3673.966775152457	520.898383834324	1283.7612478185374	3767.135790563322	634.5693852456048	465.46355531445107	3525.193617967616	738.5104993458301	858.100004690063	3541.9188303123096	736.8997254287368	1229.5479285271338	3601.7876683448735	724.5962206743199	1311.7509705277914	3508.7543683306826	674.4188632586919	1271.2373164689593	3452.2417495268865	715.2356527939013	1264.4173244195292	3611.106978852197	703.6056660324158	-127.44420210687805	3562.8070589913445	644.3914480662808	-378.44360763477755	3510.099460282146	627.0058655468761	-236.26476435704234	3484.8168491380866	618.8819147777692	-39.40909286823724	3723.6364842475446	544.8280593696281	200.08898418547238	3643.4363025056164	423.76549078090454	345.4841015403949	3467.1925544946066	494.05480125506904	432.66561520261365	3527.129035677619	622.433682670194	437.3863560856264	3477.838301150031	612.8485153629695	467.70912206665605	3450.3696074258532	591.391450339247	-22.763882584247625	3554.3599101760756	829.3730464083767	221.38721814316563	3418.9442843548823	779.6870295056942	357.92488351791854	3410.6678310219254	601.3206845838016	411.60180256656844	3434.2321143173217	497.8257298159913	432.5024614129475	3449.990400345989	499.8605856983664	461.45090569608755	3432.504830173316	575.7057839025173
461	7.683333333333334	463.73813842387267	3629.9754719951825	527.837109970192	875.1265218553356	3703.9634006348842	563.2998962958226	1258.1269885480758	3774.320771650375	625.4322930982438	1308.130047504312	3599.48273325477	545.3215374306291	1309.7880431991916	3673.126588533354	520.4376138634799	1283.712437173485	3766.633935180618	634.2703149582592	467.73556477332966	3514.010850229096	726.5125872012921	860.6955000415512	3550.318100853102	740.4877436549448	1220.8737067215616	3602.930488385773	726.5009640211398	1307.50530733313	3494.309574698843	672.6157470638373	1271.2026838243269	3452.187631209745	715.1947401797324	1258.2886461399307	3607.272240118507	702.5295486530596	-123.05282082833112	3558.625897969601	642.3125469427698	-378.44706129993966	3510.102518442439	627.0668230527227	-235.68154392829544	3465.1968934582005	613.5513766356294	-39.42089040711927	3723.8315855443534	544.8526478487562	200.14106175193595	3643.376162201779	423.76295564153907	345.5146583569289	3467.2733370268506	494.01875648903376	435.71996689125757	3545.8262967030864	626.8830154114692	436.8485207813868	3493.0482741357055	616.3030446161528	467.40683349630314	3450.228011458802	591.3461355995252	-18.564152269596054	3550.282078284226	827.030031828748	221.50907713060403	3418.6948683688706	779.3394659112075	362.4267754891425	3412.102966550331	602.4062617147989	411.4585289611517	3431.717136006274	501.434801568128	435.8920228898443	3445.46184185951	502.65206277820556	464.98349260463664	3433.8305165697566	576.7312992459506
462	7.7	468.3215788123804	3631.758094861422	528.9357039768273	870.5815412945734	3709.503894508228	560.1982417832332	1258.3487891865411	3774.7803455175294	625.4121003104494	1310.1518962346731	3594.7018394431193	542.6534195148616	1310.0638750810535	3673.4886749291927	520.6039248267166	1286.650545339351	3761.6785260935953	631.2123422962153	470.80115453840585	3528.474743297868	739.6574075545158	860.5474648032583	3550.038031523994	740.4854535503711	1223.175832923319	3597.9756194178653	723.6579849247222	1298.1348637029394	3484.9011816851967	668.1248075534909	1271.0724378065909	3452.21105196696	715.1859500624527	1265.876731584121	3623.4919363126955	715.7978357257381	-122.93890888187978	3558.6373004230136	642.3866555525547	-378.5994583192906	3509.954040116899	627.0011333279797	-235.68307121657853	3465.1756572914405	613.5868509989947	-39.367809681138695	3723.8924406002284	544.8931676130704	204.45722295235538	3638.691887353342	421.72840793542605	345.4493699836396	3467.074407586967	494.1723301208654	430.0645554597384	3509.636265767654	607.9699275889008	434.7474759036659	3473.795396866997	611.1170200555131	461.62135864008997	3447.0220827238973	589.5646023386628	-18.56131111267036	3550.5015197561675	827.31025925042	221.32584472434752	3418.036597075361	778.8901765412154	357.40005476528785	3408.1984067076123	601.0005732276148	409.0723728062368	3397.526125613206	492.7487314249091	435.67469629346147	3445.278463186875	502.8193756600006	452.6862921136986	3408.7454211472027	568.6462215037147
